<svg width="104" height="43" viewBox="0 0 104 43" fill="none" xmlns="http://www.w3.org/2000/svg">
    <path d="M11.7734 12.998C12.1185 12.998 12.4245 12.9329 12.6914 12.8027C12.9583 12.666 13.1667 12.4772 13.3164 12.2363C13.4727 11.9889 13.554 11.6992 13.5605 11.3672H16.207C16.2005 12.1094 16.002 12.7702 15.6113 13.3496C15.2207 13.9225 14.6966 14.375 14.0391 14.707C13.3815 15.0326 12.6458 15.1953 11.832 15.1953C11.0117 15.1953 10.2956 15.0586 9.68359 14.7852C9.07812 14.5117 8.57357 14.1341 8.16992 13.6523C7.76628 13.1641 7.46354 12.5977 7.26172 11.9531C7.0599 11.3021 6.95898 10.6055 6.95898 9.86328V9.58008C6.95898 8.83138 7.0599 8.13477 7.26172 7.49023C7.46354 6.83919 7.76628 6.27279 8.16992 5.79102C8.57357 5.30273 9.07812 4.92188 9.68359 4.64844C10.2891 4.375 10.9987 4.23828 11.8125 4.23828C12.6784 4.23828 13.4368 4.4043 14.0879 4.73633C14.7454 5.06836 15.2598 5.54362 15.6309 6.16211C16.0085 6.77409 16.2005 7.5 16.207 8.33984H13.5605C13.554 7.98828 13.4792 7.66927 13.3359 7.38281C13.1992 7.09635 12.9974 6.86849 12.7305 6.69922C12.4701 6.52344 12.1478 6.43555 11.7637 6.43555C11.3535 6.43555 11.0182 6.52344 10.7578 6.69922C10.4974 6.86849 10.2956 7.10286 10.1523 7.40234C10.0091 7.69531 9.9082 8.0306 9.84961 8.4082C9.79753 8.7793 9.77148 9.16992 9.77148 9.58008V9.86328C9.77148 10.2734 9.79753 10.6673 9.84961 11.0449C9.90169 11.4225 9.99935 11.7578 10.1426 12.0508C10.2923 12.3438 10.4974 12.5749 10.7578 12.7441C11.0182 12.9134 11.3568 12.998 11.7734 12.998ZM20.6504 6.73828V15H17.8379V4.43359H20.4844L20.6504 6.73828ZM23.834 4.36523L23.7852 6.97266C23.6484 6.95312 23.4824 6.93685 23.2871 6.92383C23.0983 6.9043 22.9258 6.89453 22.7695 6.89453C22.3724 6.89453 22.0273 6.94661 21.7344 7.05078C21.4479 7.14844 21.207 7.29492 21.0117 7.49023C20.8229 7.68555 20.6797 7.92318 20.582 8.20312C20.4909 8.48307 20.4388 8.80208 20.4258 9.16016L19.8594 8.98438C19.8594 8.30078 19.9277 7.67253 20.0645 7.09961C20.2012 6.52018 20.3997 6.01562 20.6602 5.58594C20.9271 5.15625 21.2526 4.82422 21.6367 4.58984C22.0208 4.35547 22.4603 4.23828 22.9551 4.23828C23.1113 4.23828 23.2708 4.2513 23.4336 4.27734C23.5964 4.29688 23.7298 4.32617 23.834 4.36523ZM29.8301 15.1953C29.0098 15.1953 28.2741 15.0651 27.623 14.8047C26.972 14.5378 26.4186 14.1699 25.9629 13.7012C25.5137 13.2324 25.1686 12.6888 24.9277 12.0703C24.6868 11.4453 24.5664 10.7812 24.5664 10.0781V9.6875C24.5664 8.88672 24.6803 8.1543 24.9082 7.49023C25.1361 6.82617 25.4616 6.25 25.8848 5.76172C26.3145 5.27344 26.8353 4.89909 27.4473 4.63867C28.0592 4.37174 28.7493 4.23828 29.5176 4.23828C30.2663 4.23828 30.9303 4.36198 31.5098 4.60938C32.0892 4.85677 32.5742 5.20833 32.9648 5.66406C33.362 6.11979 33.6615 6.66667 33.8633 7.30469C34.0651 7.9362 34.166 8.63932 34.166 9.41406V10.5859H25.7676V8.71094H31.4023V8.49609C31.4023 8.10547 31.3307 7.75716 31.1875 7.45117C31.0508 7.13867 30.8424 6.89128 30.5625 6.70898C30.2826 6.52669 29.9245 6.43555 29.4883 6.43555C29.1172 6.43555 28.7982 6.51693 28.5312 6.67969C28.2643 6.84245 28.0462 7.07031 27.877 7.36328C27.7142 7.65625 27.5905 8.0013 27.5059 8.39844C27.4277 8.78906 27.3887 9.21875 27.3887 9.6875V10.0781C27.3887 10.5013 27.4473 10.8919 27.5645 11.25C27.6882 11.6081 27.8607 11.9173 28.082 12.1777C28.3099 12.4382 28.5833 12.64 28.9023 12.7832C29.2279 12.9264 29.5957 12.998 30.0059 12.998C30.5137 12.998 30.9857 12.9004 31.4219 12.7051C31.8646 12.5033 32.2454 12.2005 32.5645 11.7969L33.9316 13.2812C33.7103 13.6003 33.4076 13.9062 33.0234 14.1992C32.6458 14.4922 32.1901 14.7331 31.6562 14.9219C31.1224 15.1042 30.5137 15.1953 29.8301 15.1953ZM41.4707 12.6172V7.91016C41.4707 7.57161 41.4154 7.2819 41.3047 7.04102C41.194 6.79362 41.0215 6.60156 40.7871 6.46484C40.5592 6.32812 40.263 6.25977 39.8984 6.25977C39.5859 6.25977 39.3158 6.3151 39.0879 6.42578C38.86 6.52995 38.6842 6.68294 38.5605 6.88477C38.4368 7.08008 38.375 7.3112 38.375 7.57812H35.5625C35.5625 7.12891 35.6667 6.70247 35.875 6.29883C36.0833 5.89518 36.3861 5.54036 36.7832 5.23438C37.1803 4.92188 37.6523 4.67773 38.1992 4.50195C38.7526 4.32617 39.3711 4.23828 40.0547 4.23828C40.875 4.23828 41.6042 4.375 42.2422 4.64844C42.8802 4.92188 43.3815 5.33203 43.7461 5.87891C44.1172 6.42578 44.3027 7.10938 44.3027 7.92969V12.4512C44.3027 13.0306 44.3385 13.5059 44.4102 13.877C44.4818 14.2415 44.5859 14.5605 44.7227 14.834V15H41.8809C41.7441 14.7135 41.64 14.3555 41.5684 13.9258C41.5033 13.4896 41.4707 13.0534 41.4707 12.6172ZM41.8418 8.56445L41.8613 10.1562H40.2891C39.918 10.1562 39.5957 10.1986 39.3223 10.2832C39.0488 10.3678 38.8242 10.4883 38.6484 10.6445C38.4727 10.7943 38.3424 10.9701 38.2578 11.1719C38.1797 11.3737 38.1406 11.5951 38.1406 11.8359C38.1406 12.0768 38.196 12.2949 38.3066 12.4902C38.4173 12.679 38.5768 12.8288 38.7852 12.9395C38.9935 13.0436 39.2376 13.0957 39.5176 13.0957C39.9408 13.0957 40.3086 13.0111 40.6211 12.8418C40.9336 12.6725 41.1745 12.4642 41.3438 12.2168C41.5195 11.9694 41.6107 11.735 41.6172 11.5137L42.3594 12.7051C42.2552 12.972 42.112 13.2487 41.9297 13.5352C41.7539 13.8216 41.5293 14.0918 41.2559 14.3457C40.9824 14.5931 40.6536 14.7982 40.2695 14.9609C39.8854 15.1172 39.4297 15.1953 38.9023 15.1953C38.2318 15.1953 37.623 15.0618 37.0762 14.7949C36.5358 14.5215 36.1061 14.1471 35.7871 13.6719C35.4746 13.1901 35.3184 12.6432 35.3184 12.0312C35.3184 11.4779 35.4225 10.9863 35.6309 10.5566C35.8392 10.127 36.1452 9.76562 36.5488 9.47266C36.959 9.17318 37.4701 8.94857 38.082 8.79883C38.694 8.64258 39.4036 8.56445 40.2109 8.56445H41.8418ZM51.6465 4.43359V6.42578H45.4941V4.43359H51.6465ZM47.0176 1.82617H49.8301V11.8164C49.8301 12.1224 49.8691 12.3568 49.9473 12.5195C50.0319 12.6823 50.1556 12.7962 50.3184 12.8613C50.4811 12.9199 50.6862 12.9492 50.9336 12.9492C51.1094 12.9492 51.2656 12.9427 51.4023 12.9297C51.5456 12.9102 51.666 12.8906 51.7637 12.8711L51.7734 14.9414C51.5326 15.0195 51.2721 15.0814 50.9922 15.127C50.7122 15.1725 50.403 15.1953 50.0645 15.1953C49.446 15.1953 48.9056 15.0944 48.4434 14.8926C47.9876 14.6842 47.6361 14.3522 47.3887 13.8965C47.1413 13.4408 47.0176 12.8418 47.0176 12.0996V1.82617ZM58.1113 15.1953C57.291 15.1953 56.5553 15.0651 55.9043 14.8047C55.2533 14.5378 54.6999 14.1699 54.2441 13.7012C53.7949 13.2324 53.4499 12.6888 53.209 12.0703C52.9681 11.4453 52.8477 10.7812 52.8477 10.0781V9.6875C52.8477 8.88672 52.9616 8.1543 53.1895 7.49023C53.4173 6.82617 53.7428 6.25 54.166 5.76172C54.5957 5.27344 55.1165 4.89909 55.7285 4.63867C56.3405 4.37174 57.0306 4.23828 57.7988 4.23828C58.5475 4.23828 59.2116 4.36198 59.791 4.60938C60.3704 4.85677 60.8555 5.20833 61.2461 5.66406C61.6432 6.11979 61.9427 6.66667 62.1445 7.30469C62.3464 7.9362 62.4473 8.63932 62.4473 9.41406V10.5859H54.0488V8.71094H59.6836V8.49609C59.6836 8.10547 59.612 7.75716 59.4688 7.45117C59.332 7.13867 59.1237 6.89128 58.8438 6.70898C58.5638 6.52669 58.2057 6.43555 57.7695 6.43555C57.3984 6.43555 57.0794 6.51693 56.8125 6.67969C56.5456 6.84245 56.3275 7.07031 56.1582 7.36328C55.9954 7.65625 55.8717 8.0013 55.7871 8.39844C55.709 8.78906 55.6699 9.21875 55.6699 9.6875V10.0781C55.6699 10.5013 55.7285 10.8919 55.8457 11.25C55.9694 11.6081 56.1419 11.9173 56.3633 12.1777C56.5911 12.4382 56.8646 12.64 57.1836 12.7832C57.5091 12.9264 57.877 12.998 58.2871 12.998C58.7949 12.998 59.2669 12.9004 59.7031 12.7051C60.1458 12.5033 60.5267 12.2005 60.8457 11.7969L62.2129 13.2812C61.9915 13.6003 61.6888 13.9062 61.3047 14.1992C60.9271 14.4922 60.4714 14.7331 59.9375 14.9219C59.4036 15.1042 58.7949 15.1953 58.1113 15.1953ZM70.2891 12.6953V0H73.1211V15H70.5723L70.2891 12.6953ZM63.6094 9.84375V9.63867C63.6094 8.83138 63.7005 8.09896 63.8828 7.44141C64.0651 6.77734 64.332 6.20768 64.6836 5.73242C65.0352 5.25716 65.4681 4.88932 65.9824 4.62891C66.4967 4.36849 67.0827 4.23828 67.7402 4.23828C68.3587 4.23828 68.8991 4.36849 69.3613 4.62891C69.8301 4.88932 70.2272 5.26042 70.5527 5.74219C70.8848 6.21745 71.1517 6.7806 71.3535 7.43164C71.5553 8.07617 71.7018 8.78255 71.793 9.55078V10C71.7018 10.7357 71.5553 11.4193 71.3535 12.0508C71.1517 12.6823 70.8848 13.2357 70.5527 13.7109C70.2272 14.1797 69.8301 14.5443 69.3613 14.8047C68.8926 15.0651 68.3457 15.1953 67.7207 15.1953C67.0632 15.1953 66.4772 15.0618 65.9629 14.7949C65.4551 14.528 65.0254 14.1536 64.6738 13.6719C64.3288 13.1901 64.0651 12.6237 63.8828 11.9727C63.7005 11.3216 63.6094 10.612 63.6094 9.84375ZM66.4219 9.63867V9.84375C66.4219 10.2799 66.4544 10.6868 66.5195 11.0645C66.5911 11.4421 66.7051 11.7773 66.8613 12.0703C67.0241 12.3568 67.2324 12.5814 67.4863 12.7441C67.7467 12.9004 68.0625 12.9785 68.4336 12.9785C68.9154 12.9785 69.3125 12.8711 69.625 12.6562C69.9375 12.4349 70.1751 12.1322 70.3379 11.748C70.5072 11.3639 70.6048 10.9212 70.6309 10.4199V9.14062C70.6113 8.73047 70.5527 8.36263 70.4551 8.03711C70.3639 7.70508 70.2272 7.42188 70.0449 7.1875C69.8691 6.95312 69.6478 6.77083 69.3809 6.64062C69.1204 6.51042 68.8112 6.44531 68.4531 6.44531C68.0885 6.44531 67.776 6.52995 67.5156 6.69922C67.2552 6.86198 67.0436 7.08659 66.8809 7.37305C66.7246 7.65951 66.6074 7.99805 66.5293 8.38867C66.4577 8.77279 66.4219 9.18945 66.4219 9.63867ZM86.002 12.6172V7.91016C86.002 7.57161 85.9466 7.2819 85.8359 7.04102C85.7253 6.79362 85.5527 6.60156 85.3184 6.46484C85.0905 6.32812 84.7943 6.25977 84.4297 6.25977C84.1172 6.25977 83.847 6.3151 83.6191 6.42578C83.3913 6.52995 83.2155 6.68294 83.0918 6.88477C82.9681 7.08008 82.9062 7.3112 82.9062 7.57812H80.0938C80.0938 7.12891 80.1979 6.70247 80.4062 6.29883C80.6146 5.89518 80.9173 5.54036 81.3145 5.23438C81.7116 4.92188 82.1836 4.67773 82.7305 4.50195C83.2839 4.32617 83.9023 4.23828 84.5859 4.23828C85.4062 4.23828 86.1354 4.375 86.7734 4.64844C87.4115 4.92188 87.9128 5.33203 88.2773 5.87891C88.6484 6.42578 88.834 7.10938 88.834 7.92969V12.4512C88.834 13.0306 88.8698 13.5059 88.9414 13.877C89.013 14.2415 89.1172 14.5605 89.2539 14.834V15H86.4121C86.2754 14.7135 86.1712 14.3555 86.0996 13.9258C86.0345 13.4896 86.002 13.0534 86.002 12.6172ZM86.373 8.56445L86.3926 10.1562H84.8203C84.4492 10.1562 84.127 10.1986 83.8535 10.2832C83.5801 10.3678 83.3555 10.4883 83.1797 10.6445C83.0039 10.7943 82.8737 10.9701 82.7891 11.1719C82.7109 11.3737 82.6719 11.5951 82.6719 11.8359C82.6719 12.0768 82.7272 12.2949 82.8379 12.4902C82.9486 12.679 83.1081 12.8288 83.3164 12.9395C83.5247 13.0436 83.7689 13.0957 84.0488 13.0957C84.472 13.0957 84.8398 13.0111 85.1523 12.8418C85.4648 12.6725 85.7057 12.4642 85.875 12.2168C86.0508 11.9694 86.1419 11.735 86.1484 11.5137L86.8906 12.7051C86.7865 12.972 86.6432 13.2487 86.4609 13.5352C86.2852 13.8216 86.0605 14.0918 85.7871 14.3457C85.5137 14.5931 85.1849 14.7982 84.8008 14.9609C84.4167 15.1172 83.9609 15.1953 83.4336 15.1953C82.763 15.1953 82.1543 15.0618 81.6074 14.7949C81.0671 14.5215 80.6374 14.1471 80.3184 13.6719C80.0059 13.1901 79.8496 12.6432 79.8496 12.0312C79.8496 11.4779 79.9538 10.9863 80.1621 10.5566C80.3704 10.127 80.6764 9.76562 81.0801 9.47266C81.4902 9.17318 82.0013 8.94857 82.6133 8.79883C83.2253 8.64258 83.9349 8.56445 84.7422 8.56445H86.373ZM96.1777 4.43359V6.42578H90.0254V4.43359H96.1777ZM91.5488 1.82617H94.3613V11.8164C94.3613 12.1224 94.4004 12.3568 94.4785 12.5195C94.5632 12.6823 94.6868 12.7962 94.8496 12.8613C95.0124 12.9199 95.2174 12.9492 95.4648 12.9492C95.6406 12.9492 95.7969 12.9427 95.9336 12.9297C96.0768 12.9102 96.1973 12.8906 96.2949 12.8711L96.3047 14.9414C96.0638 15.0195 95.8034 15.0814 95.5234 15.127C95.2435 15.1725 94.9342 15.1953 94.5957 15.1953C93.9772 15.1953 93.4368 15.0944 92.9746 14.8926C92.5189 14.6842 92.1673 14.3522 91.9199 13.8965C91.6725 13.4408 91.5488 12.8418 91.5488 12.0996V1.82617ZM3.02344 29.6211V38H0.201172V27.4336H2.84766L3.02344 29.6211ZM2.63281 32.3457H1.85156C1.85156 31.61 1.93945 30.9329 2.11523 30.3145C2.29753 29.6895 2.5612 29.1491 2.90625 28.6934C3.25781 28.2311 3.69076 27.873 4.20508 27.6191C4.7194 27.3652 5.3151 27.2383 5.99219 27.2383C6.46094 27.2383 6.89062 27.3099 7.28125 27.4531C7.67188 27.5898 8.00716 27.8079 8.28711 28.1074C8.57357 28.4004 8.79492 28.7845 8.95117 29.2598C9.10742 29.7285 9.18555 30.2917 9.18555 30.9492V38H6.37305V31.2617C6.37305 30.7799 6.30794 30.4089 6.17773 30.1484C6.04753 29.888 5.86198 29.7057 5.62109 29.6016C5.38672 29.4974 5.10352 29.4453 4.77148 29.4453C4.4069 29.4453 4.08789 29.5202 3.81445 29.6699C3.54753 29.8197 3.32617 30.028 3.15039 30.2949C2.97461 30.5553 2.8444 30.8613 2.75977 31.2129C2.67513 31.5645 2.63281 31.9421 2.63281 32.3457ZM8.92188 32.0234L7.91602 32.1504C7.91602 31.4603 8.00065 30.819 8.16992 30.2266C8.3457 29.6341 8.60286 29.1133 8.94141 28.6641C9.28646 28.2148 9.71289 27.8665 10.2207 27.6191C10.7285 27.3652 11.3145 27.2383 11.9785 27.2383C12.4863 27.2383 12.9486 27.3132 13.3652 27.4629C13.7819 27.6061 14.1367 27.8372 14.4297 28.1562C14.7292 28.4688 14.957 28.8789 15.1133 29.3867C15.276 29.8945 15.3574 30.5163 15.3574 31.252V38H12.5352V31.252C12.5352 30.7637 12.4701 30.3926 12.3398 30.1387C12.2161 29.8783 12.0339 29.6992 11.793 29.6016C11.5586 29.4974 11.2786 29.4453 10.9531 29.4453C10.6146 29.4453 10.3184 29.5137 10.0645 29.6504C9.81055 29.7806 9.59896 29.9629 9.42969 30.1973C9.26042 30.4316 9.13346 30.7051 9.04883 31.0176C8.96419 31.3236 8.92188 31.6589 8.92188 32.0234ZM22.3984 38.1953C21.5781 38.1953 20.8424 38.0651 20.1914 37.8047C19.5404 37.5378 18.987 37.1699 18.5312 36.7012C18.082 36.2324 17.737 35.6888 17.4961 35.0703C17.2552 34.4453 17.1348 33.7812 17.1348 33.0781V32.6875C17.1348 31.8867 17.2487 31.1543 17.4766 30.4902C17.7044 29.8262 18.0299 29.25 18.4531 28.7617C18.8828 28.2734 19.4036 27.8991 20.0156 27.6387C20.6276 27.3717 21.3177 27.2383 22.0859 27.2383C22.8346 27.2383 23.4987 27.362 24.0781 27.6094C24.6576 27.8568 25.1426 28.2083 25.5332 28.6641C25.9303 29.1198 26.2298 29.6667 26.4316 30.3047C26.6335 30.9362 26.7344 31.6393 26.7344 32.4141V33.5859H18.3359V31.7109H23.9707V31.4961C23.9707 31.1055 23.8991 30.7572 23.7559 30.4512C23.6191 30.1387 23.4108 29.8913 23.1309 29.709C22.8509 29.5267 22.4928 29.4355 22.0566 29.4355C21.6855 29.4355 21.3665 29.5169 21.0996 29.6797C20.8327 29.8424 20.6146 30.0703 20.4453 30.3633C20.2826 30.6562 20.1589 31.0013 20.0742 31.3984C19.9961 31.7891 19.957 32.2188 19.957 32.6875V33.0781C19.957 33.5013 20.0156 33.8919 20.1328 34.25C20.2565 34.6081 20.429 34.9173 20.6504 35.1777C20.8783 35.4382 21.1517 35.64 21.4707 35.7832C21.7962 35.9264 22.1641 35.998 22.5742 35.998C23.082 35.998 23.554 35.9004 23.9902 35.7051C24.4329 35.5033 24.8138 35.2005 25.1328 34.7969L26.5 36.2812C26.2786 36.6003 25.9759 36.9062 25.5918 37.1992C25.2142 37.4922 24.7585 37.7331 24.2246 37.9219C23.6908 38.1042 23.082 38.1953 22.3984 38.1953ZM31.1484 29.6211V38H28.3262V27.4336H30.9727L31.1484 29.6211ZM30.7578 32.3457H29.9766C29.9766 31.61 30.0645 30.9329 30.2402 30.3145C30.4225 29.6895 30.6862 29.1491 31.0312 28.6934C31.3828 28.2311 31.8158 27.873 32.3301 27.6191C32.8444 27.3652 33.4401 27.2383 34.1172 27.2383C34.5859 27.2383 35.0156 27.3099 35.4062 27.4531C35.7969 27.5898 36.1322 27.8079 36.4121 28.1074C36.6986 28.4004 36.9199 28.7845 37.0762 29.2598C37.2324 29.7285 37.3105 30.2917 37.3105 30.9492V38H34.498V31.2617C34.498 30.7799 34.4329 30.4089 34.3027 30.1484C34.1725 29.888 33.987 29.7057 33.7461 29.6016C33.5117 29.4974 33.2285 29.4453 32.8965 29.4453C32.5319 29.4453 32.2129 29.5202 31.9395 29.6699C31.6725 29.8197 31.4512 30.028 31.2754 30.2949C31.0996 30.5553 30.9694 30.8613 30.8848 31.2129C30.8001 31.5645 30.7578 31.9421 30.7578 32.3457ZM37.0469 32.0234L36.041 32.1504C36.041 31.4603 36.1257 30.819 36.2949 30.2266C36.4707 29.6341 36.7279 29.1133 37.0664 28.6641C37.4115 28.2148 37.8379 27.8665 38.3457 27.6191C38.8535 27.3652 39.4395 27.2383 40.1035 27.2383C40.6113 27.2383 41.0736 27.3132 41.4902 27.4629C41.9069 27.6061 42.2617 27.8372 42.5547 28.1562C42.8542 28.4688 43.082 28.8789 43.2383 29.3867C43.401 29.8945 43.4824 30.5163 43.4824 31.252V38H40.6602V31.252C40.6602 30.7637 40.5951 30.3926 40.4648 30.1387C40.3411 29.8783 40.1589 29.6992 39.918 29.6016C39.6836 29.4974 39.4036 29.4453 39.0781 29.4453C38.7396 29.4453 38.4434 29.5137 38.1895 29.6504C37.9355 29.7806 37.724 29.9629 37.5547 30.1973C37.3854 30.4316 37.2585 30.7051 37.1738 31.0176C37.0892 31.3236 37.0469 31.6589 37.0469 32.0234ZM50.5234 38.1953C49.7031 38.1953 48.9674 38.0651 48.3164 37.8047C47.6654 37.5378 47.112 37.1699 46.6562 36.7012C46.207 36.2324 45.862 35.6888 45.6211 35.0703C45.3802 34.4453 45.2598 33.7812 45.2598 33.0781V32.6875C45.2598 31.8867 45.3737 31.1543 45.6016 30.4902C45.8294 29.8262 46.1549 29.25 46.5781 28.7617C47.0078 28.2734 47.5286 27.8991 48.1406 27.6387C48.7526 27.3717 49.4427 27.2383 50.2109 27.2383C50.9596 27.2383 51.6237 27.362 52.2031 27.6094C52.7826 27.8568 53.2676 28.2083 53.6582 28.6641C54.0553 29.1198 54.3548 29.6667 54.5566 30.3047C54.7585 30.9362 54.8594 31.6393 54.8594 32.4141V33.5859H46.4609V31.7109H52.0957V31.4961C52.0957 31.1055 52.0241 30.7572 51.8809 30.4512C51.7441 30.1387 51.5358 29.8913 51.2559 29.709C50.9759 29.5267 50.6178 29.4355 50.1816 29.4355C49.8105 29.4355 49.4915 29.5169 49.2246 29.6797C48.9577 29.8424 48.7396 30.0703 48.5703 30.3633C48.4076 30.6562 48.2839 31.0013 48.1992 31.3984C48.1211 31.7891 48.082 32.2188 48.082 32.6875V33.0781C48.082 33.5013 48.1406 33.8919 48.2578 34.25C48.3815 34.6081 48.554 34.9173 48.7754 35.1777C49.0033 35.4382 49.2767 35.64 49.5957 35.7832C49.9212 35.9264 50.2891 35.998 50.6992 35.998C51.207 35.998 51.679 35.9004 52.1152 35.7051C52.5579 35.5033 52.9388 35.2005 53.2578 34.7969L54.625 36.2812C54.4036 36.6003 54.1009 36.9062 53.7168 37.1992C53.3392 37.4922 52.8835 37.7331 52.3496 37.9219C51.8158 38.1042 51.207 38.1953 50.5234 38.1953ZM59.4297 23V38H56.6074V23H59.4297ZM64.8887 36.8086L67.6914 27.4336H70.709L66.4609 39.5918C66.3698 39.8587 66.2461 40.1452 66.0898 40.4512C65.9401 40.7572 65.735 41.0469 65.4746 41.3203C65.2207 41.6003 64.8984 41.8281 64.5078 42.0039C64.1237 42.1797 63.6517 42.2676 63.0918 42.2676C62.8249 42.2676 62.6068 42.2513 62.4375 42.2188C62.2682 42.1862 62.0664 42.1406 61.832 42.082V40.0215C61.9036 40.0215 61.9785 40.0215 62.0566 40.0215C62.1348 40.028 62.2096 40.0312 62.2812 40.0312C62.6523 40.0312 62.9551 39.9889 63.1895 39.9043C63.4238 39.8197 63.6126 39.6895 63.7559 39.5137C63.8991 39.3444 64.013 39.123 64.0977 38.8496L64.8887 36.8086ZM63.7168 27.4336L66.0117 35.0898L66.4121 38.0684L64.498 38.2734L60.6992 27.4336H63.7168ZM70.5234 36.6426C70.5234 36.2259 70.6667 35.8776 70.9531 35.5977C71.2461 35.3177 71.6335 35.1777 72.1152 35.1777C72.597 35.1777 72.9811 35.3177 73.2676 35.5977C73.5605 35.8776 73.707 36.2259 73.707 36.6426C73.707 37.0592 73.5605 37.4076 73.2676 37.6875C72.9811 37.9674 72.597 38.1074 72.1152 38.1074C71.6335 38.1074 71.2461 37.9674 70.9531 37.6875C70.6667 37.4076 70.5234 37.0592 70.5234 36.6426ZM78.9414 29.6895V38H76.1289V27.4336H78.7656L78.9414 29.6895ZM78.5312 32.3457H77.7695C77.7695 31.5645 77.8704 30.8613 78.0723 30.2363C78.2741 29.6048 78.5573 29.0677 78.9219 28.625C79.2865 28.1758 79.7194 27.834 80.2207 27.5996C80.7285 27.3587 81.2949 27.2383 81.9199 27.2383C82.4147 27.2383 82.8672 27.3099 83.2773 27.4531C83.6875 27.5964 84.0391 27.8242 84.332 28.1367C84.6315 28.4492 84.8594 28.8626 85.0156 29.377C85.1784 29.8913 85.2598 30.5195 85.2598 31.2617V38H82.4277V31.252C82.4277 30.7832 82.3626 30.4186 82.2324 30.1582C82.1022 29.8978 81.9102 29.7155 81.6562 29.6113C81.4089 29.5007 81.1029 29.4453 80.7383 29.4453C80.3607 29.4453 80.0319 29.5202 79.752 29.6699C79.4785 29.8197 79.2507 30.028 79.0684 30.2949C78.8926 30.5553 78.7591 30.8613 78.668 31.2129C78.5768 31.5645 78.5312 31.9421 78.5312 32.3457ZM92.2617 38.1953C91.4414 38.1953 90.7057 38.0651 90.0547 37.8047C89.4036 37.5378 88.8503 37.1699 88.3945 36.7012C87.9453 36.2324 87.6003 35.6888 87.3594 35.0703C87.1185 34.4453 86.998 33.7812 86.998 33.0781V32.6875C86.998 31.8867 87.112 31.1543 87.3398 30.4902C87.5677 29.8262 87.8932 29.25 88.3164 28.7617C88.7461 28.2734 89.2669 27.8991 89.8789 27.6387C90.4909 27.3717 91.181 27.2383 91.9492 27.2383C92.6979 27.2383 93.362 27.362 93.9414 27.6094C94.5208 27.8568 95.0059 28.2083 95.3965 28.6641C95.7936 29.1198 96.0931 29.6667 96.2949 30.3047C96.4967 30.9362 96.5977 31.6393 96.5977 32.4141V33.5859H88.1992V31.7109H93.834V31.4961C93.834 31.1055 93.7624 30.7572 93.6191 30.4512C93.4824 30.1387 93.2741 29.8913 92.9941 29.709C92.7142 29.5267 92.3561 29.4355 91.9199 29.4355C91.5488 29.4355 91.2298 29.5169 90.9629 29.6797C90.696 29.8424 90.4779 30.0703 90.3086 30.3633C90.1458 30.6562 90.0221 31.0013 89.9375 31.3984C89.8594 31.7891 89.8203 32.2188 89.8203 32.6875V33.0781C89.8203 33.5013 89.8789 33.8919 89.9961 34.25C90.1198 34.6081 90.2923 34.9173 90.5137 35.1777C90.7415 35.4382 91.015 35.64 91.334 35.7832C91.6595 35.9264 92.0273 35.998 92.4375 35.998C92.9453 35.998 93.4173 35.9004 93.8535 35.7051C94.2962 35.5033 94.6771 35.2005 94.9961 34.7969L96.3633 36.2812C96.1419 36.6003 95.8392 36.9062 95.4551 37.1992C95.0775 37.4922 94.6217 37.7331 94.0879 37.9219C93.554 38.1042 92.9453 38.1953 92.2617 38.1953ZM103.375 27.4336V29.4258H97.2227V27.4336H103.375ZM98.7461 24.8262H101.559V34.8164C101.559 35.1224 101.598 35.3568 101.676 35.5195C101.76 35.6823 101.884 35.7962 102.047 35.8613C102.21 35.9199 102.415 35.9492 102.662 35.9492C102.838 35.9492 102.994 35.9427 103.131 35.9297C103.274 35.9102 103.395 35.8906 103.492 35.8711L103.502 37.9414C103.261 38.0195 103.001 38.0814 102.721 38.127C102.441 38.1725 102.132 38.1953 101.793 38.1953C101.174 38.1953 100.634 38.0944 100.172 37.8926C99.7161 37.6842 99.3646 37.3522 99.1172 36.8965C98.8698 36.4408 98.7461 35.8418 98.7461 35.0996V24.8262Z" fill="white" fill-opacity="0.5"/>
</svg>
